HIERARCHY
ROOT hip
{
  OFFSET 0 0 0
  CHANNELS 6 Xposition Yposition Zposition Zrotation Yrotation Xrotation
  JOINT abdomen
  {
    OFFSET 0 20.6881 -0.73152
    CHANNELS 3 Zrotation Xrotation Yrotation
    JOINT chest
    {
      OFFSET 0 11.7043 -0.48768
      CHANNELS 3 Zrotation Xrotation Yrotation
      JOINT neck
      {
        OFFSET 0 22.1894 -2.19456
        CHANNELS 3 Zrotation Xrotation Yrotation
        JOINT head
        {
          OFFSET -0.24384 7.07133 1.2192
          CHANNELS 3 Zrotation Xrotation Yrotation
          JOINT leftEye
          {
            OFFSET 4.14528 8.04674 8.04672
            CHANNELS 3 Zrotation Xrotation Yrotation
            End Site
            {
              OFFSET 1 0 0
            }
          }
          JOINT rightEye
          {
            OFFSET -3.6576 8.04674 8.04672
            CHANNELS 3 Zrotation Xrotation Yrotation
            End Site
            {
              OFFSET 1 0 0
            }
          }
        }
      }
      JOINT rCollar
      {
        OFFSET -2.68224 19.2634 -4.8768
        CHANNELS 3 Zrotation Xrotation Yrotation
        JOINT rShldr
        {
          OFFSET -8.77824 -1.95073 1.46304
          CHANNELS 3 Zrotation Xrotation Yrotation
          JOINT rForeArm
          {
            OFFSET -28.1742 -1.7115 0.48768
            CHANNELS 3 Zrotation Xrotation Yrotation
            JOINT rHand
            {
              OFFSET -22.5879 0.773209 7.07136
              CHANNELS 3 Zrotation Xrotation Yrotation
              JOINT rThumb1
              {
                OFFSET -1.2192 -0.487915 3.41376
                CHANNELS 3 Zrotation Xrotation Yrotation
                JOINT rThumb2
                {
                  OFFSET -3.37035 -0.52449 3.41376
                  CHANNELS 3 Zrotation Xrotation Yrotation
                  End Site
                  {
                    OFFSET -1.78271 -1.18214 1.43049
                  }
                }
              }
              JOINT rIndex1
              {
                OFFSET -7.75947 0.938293 5.60832
                CHANNELS 3 Zrotation Xrotation Yrotation
                JOINT rIndex2
                {
                  OFFSET -2.54057 -0.884171 1.56538
                  CHANNELS 3 Zrotation Xrotation Yrotation
                  End Site
                  {
                    OFFSET -1.62519 -0.234802 1.16502
                  }
                }
              }
              JOINT rMid1
              {
                OFFSET -8.24714 1.18213 3.41376
                CHANNELS 3 Zrotation Xrotation Yrotation
                JOINT rMid2
                {
                  OFFSET -3.10165 -0.590103 1.0647
                  CHANNELS 3 Zrotation Xrotation Yrotation
                  End Site
                  {
                    OFFSET -2.48547 -0.328903 0.83742
                  }
                }
              }
              JOINT rRing1
              {
                OFFSET -8.82822 0.546677 1.51678
                CHANNELS 3 Zrotation Xrotation Yrotation
                JOINT rRing2
                {
                  OFFSET -2.60934 -0.819778 -0.0198488
                  CHANNELS 3 Zrotation Xrotation Yrotation
                  End Site
                  {
                    OFFSET -2.33842 -0.294052 0.168128
                  }
                }
              }
              JOINT rPinky1
              {
                OFFSET -8.27202 -0.0477905 -0.4584
                CHANNELS 3 Zrotation Xrotation Yrotation
                JOINT rPinky2
                {
                  OFFSET -1.82734 -0.647385 -0.700984
                  CHANNELS 3 Zrotation Xrotation Yrotation
                  End Site
                  {
                    OFFSET -1.69225 -0.51767 -0.607171
                  }
                }
              }
            }
          }
        }
      }
      JOINT lCollar
      {
        OFFSET 2.68224 19.2634 -4.8768
        CHANNELS 3 Zrotation Xrotation Yrotation
        JOINT lShldr
        {
          OFFSET 8.77824 -1.95073 1.46304
          CHANNELS 3 Zrotation Xrotation Yrotation
          JOINT lForeArm
          {
            OFFSET 28.1742 -1.7115 0.48768
            CHANNELS 3 Zrotation Xrotation Yrotation
            JOINT lHand
            {
              OFFSET 22.5879 0.773209 7.07136
              CHANNELS 3 Zrotation Xrotation Yrotation
              JOINT lThumb1
              {
                OFFSET 1.2192 -0.487915 3.41376
                CHANNELS 3 Zrotation Xrotation Yrotation
                JOINT lThumb2
                {
                  OFFSET 3.37035 -0.52449 3.41376
                  CHANNELS 3 Zrotation Xrotation Yrotation
                  End Site
                  {
                    OFFSET 1.78271 -1.18214 1.43049
                  }
                }
              }
              JOINT lIndex1
              {
                OFFSET 7.75947 0.938293 5.60832
                CHANNELS 3 Zrotation Xrotation Yrotation
                JOINT lIndex2
                {
                  OFFSET 2.54057 -0.884171 1.56538
                  CHANNELS 3 Zrotation Xrotation Yrotation
                  End Site
                  {
                    OFFSET 1.62519 -0.234802 1.16502
                  }
                }
              }
              JOINT lMid1
              {
                OFFSET 8.24714 1.18213 3.41376
                CHANNELS 3 Zrotation Xrotation Yrotation
                JOINT lMid2
                {
                  OFFSET 3.10165 -0.590103 1.0647
                  CHANNELS 3 Zrotation Xrotation Yrotation
                  End Site
                  {
                    OFFSET 2.48547 -0.328903 0.83742
                  }
                }
              }
              JOINT lRing1
              {
                OFFSET 8.82822 0.546677 1.51678
                CHANNELS 3 Zrotation Xrotation Yrotation
                JOINT lRing2
                {
                  OFFSET 2.60934 -0.819778 -0.0198488
                  CHANNELS 3 Zrotation Xrotation Yrotation
                  End Site
                  {
                    OFFSET 2.33842 -0.294052 0.168128
                  }
                }
              }
              JOINT lPinky1
              {
                OFFSET 8.27202 -0.0477905 -0.4584
                CHANNELS 3 Zrotation Xrotation Yrotation
                JOINT lPinky2
                {
                  OFFSET 1.82734 -0.647385 -0.700984
                  CHANNELS 3 Zrotation Xrotation Yrotation
                  End Site
                  {
                    OFFSET 1.69225 -0.51767 -0.607171
                  }
                }
              }
            }
          }
        }
      }
    }
  }
  JOINT rButtock
  {
    OFFSET -8.77824 4.35084 1.2192
    CHANNELS 3 Zrotation Xrotation Yrotation
    JOINT rThigh
    {
      OFFSET 0 -1.70687 -2.19456
      CHANNELS 3 Zrotation Xrotation Yrotation
      JOINT rShin
      {
        OFFSET 0 -36.8199 0.73152
        CHANNELS 3 Zrotation Xrotation Yrotation
        JOINT rFoot
        {
          OFFSET 0.73152 -45.1104 -5.12064
          CHANNELS 3 Zrotation Xrotation Yrotation
          End Site
          {
            OFFSET -1.1221 -3.69964 12.103
          }
        }
      }
    }
  }
  JOINT lButtock
  {
    OFFSET 8.77824 4.35084 1.2192
    CHANNELS 3 Zrotation Xrotation Yrotation
    JOINT lThigh
    {
      OFFSET 0 -1.70687 -2.19456
      CHANNELS 3 Zrotation Xrotation Yrotation
      JOINT lShin
      {
        OFFSET 0 -36.8199 0.73152
        CHANNELS 3 Zrotation Xrotation Yrotation
        JOINT lFoot
        {
          OFFSET -0.73152 -45.1104 -5.12064
          CHANNELS 3 Zrotation Xrotation Yrotation
          End Site
          {
            OFFSET 1.1221 -3.69964 12.103
          }
        }
      }
    }
  }
}
MOTION
Frames:	5
Frame Time:	0.00833333
-24.3552 82.8537 8.45781 -131.627 -77.752 145.19 7.03534 0.219877 4.75552 1.23521 -14.0489 1.46007 -1.46361 3.01081 4.08904 -12.9113 42.8444 6.75147 -0.0 0.0 0.0 -0.0 0.0 0.0 9.9462e-14 -1.10927e-12 1.52114e-13 61.3256 68.4452 1.24033 -12.506 -5.80889 22.5958 -0.224033 -13.3615 -1.91298 -1.40953e-09 -9.88668e-10 1.62844e-11 -2.43647e-09 -1.70705e-09 1.6068e-11 -1.40952e-09 -9.88672e-10 1.62801e-11 7.73091 5.47488 0.417314 -1.40953e-09 -9.88674e-10 1.6288e-11 2.90554 0.965183 0.102902 -1.40952e-09 -9.88673e-10 1.62898e-11 10.2786 0.731801 0.0259123 -1.40953e-09 -9.88669e-10 1.6302e-11 2.22167 -0.733487 -0.20892 9.94535e-14 -1.10927e-12 1.51977e-13 -81.0284 26.8673 4.75827 10.9366 -4.73541 -19.562 0.126882 10.3144 -1.46463 -5.21235e-10 4.97122e-11 -3.95929e-10 -8.9606e-10 8.38811e-11 -6.82913e-10 -5.21237e-10 4.97144e-11 -3.95935e-10 -7.73091 5.47488 -0.417314 -5.21233e-10 4.97143e-11 -3.9594e-10 -2.90554 0.965183 -0.102902 -5.21243e-10 4.97151e-11 -3.95932e-10 -10.2786 0.731801 -0.0259123 -5.2123e-10 4.97188e-11 -3.95941e-10 -2.22167 -0.733487 0.20892 -2.03217e-16 0.0 -3.88251e-19 10.2286 -11.6201 -2.3655 0.0122595 30.8918 0.851222 -1.46152 -6.0724 -8.49523 2.03217e-16 0.0 3.88251e-19 0.509375 -22.8569 -17.7675 -0.0337135 7.61947 -0.662896 6.6804 -16.2065 19.9129
-25.1059 82.7828 8.78512 -133.609 -77.7417 146.939 6.24372 0.305293 4.68618 1.46385 -14.1056 1.47004 -1.43277 3.17879 4.1391 -12.8517 42.7171 6.77613 -0.0 0.0 0.0 -0.0 0.0 0.0 1.59862e-13 -9.62146e-13 3.13347e-13 58.7076 67.9437 3.86881 -12.7455 -5.98384 23.0657 -0.216499 -13.1375 -1.87976 -3.92883e-09 -2.83235e-09 1.18341e-09 -6.79671e-09 -4.89076e-09 2.01017e-09 -3.92883e-09 -2.83236e-09 1.18341e-09 7.73091 5.47488 0.417314 -3.92884e-09 -2.83236e-09 1.18341e-09 2.90554 0.965183 0.102902 -3.92883e-09 -2.83236e-09 1.18342e-09 10.2786 0.731801 0.0259123 -3.92884e-09 -2.83235e-09 1.18343e-09 2.22167 -0.733487 -0.20892 1.59853e-13 -9.6215e-13 3.13207e-13 -80.9892 29.5854 4.31863 11.3172 -4.98429 -20.291 0.0952671 8.93552 -1.26554 -6.37768e-10 -2.2597e-10 -2.40072e-09 -1.11433e-09 -3.88943e-10 -4.14748e-09 -6.37767e-10 -2.25964e-10 -2.40073e-09 -7.73091 5.47488 -0.417314 -6.37766e-10 -2.25963e-10 -2.40073e-09 -2.90554 0.965183 -0.102902 -6.37772e-10 -2.25963e-10 -2.40072e-09 -10.2786 0.731801 -0.0259123 -6.37763e-10 -2.2596e-10 -2.40073e-09 -2.22167 -0.733487 0.20892 -2.03217e-16 0.0 -3.88251e-19 9.02856 -12.7202 -2.82711 -0.0658553 33.2653 0.866396 -1.41417 -4.34446 -9.48148 2.03217e-16 0.0 3.88251e-19 -0.278189 -22.2152 -17.6864 -0.0302128 7.79781 -0.603966 6.71052 -16.5726 19.7589
-25.8954 82.6776 9.13075 -136.324 -77.8414 149.372 5.441 0.354684 4.60062 1.67732 -14.1493 1.47236 -1.36348 3.37282 4.18035 -12.8343 42.6022 6.78641 -0.0 0.0 0.0 -0.0 0.0 0.0 1.83492e-13 -9.16942e-13 3.76945e-13 56.5072 67.2662 6.14372 -13.0172 -6.18811 23.5967 -0.214489 -13.0785 -1.87099 -5.32644e-09 -3.86277e-09 1.9169e-09 -9.21631e-09 -6.67032e-09 3.26512e-09 -5.32644e-09 -3.86277e-09 1.91689e-09 7.73091 5.47488 0.417314 -5.32644e-09 -3.86277e-09 1.9169e-09 2.90554 0.965183 0.102902 -5.32643e-09 -3.86277e-09 1.91691e-09 10.2786 0.731801 0.0259123 -5.32644e-09 -3.86277e-09 1.91692e-09 2.22167 -0.733487 -0.20892 1.83477e-13 -9.16946e-13 3.76796e-13 -80.7493 32.147 3.70489 11.6512 -5.20702 -20.9367 0.0760455 7.84313 -1.10929 -5.84893e-10 -4.14986e-10 -3.57075e-09 -1.03332e-09 -7.13414e-10 -6.17008e-09 -5.8489e-10 -4.14978e-10 -3.57076e-09 -7.73091 5.47488 -0.417314 -5.84891e-10 -4.14977e-10 -3.57076e-09 -2.90554 0.965183 -0.102902 -5.84896e-10 -4.14977e-10 -3.57075e-09 -10.2786 0.731801 -0.0259123 -5.84889e-10 -4.14975e-10 -3.57076e-09 -2.22167 -0.733487 0.20892 -2.03217e-16 0.0 -3.88251e-19 7.8946 -13.7721 -3.11295 -0.121964 35.1945 0.902055 -1.63334 -3.86628 -11.0367 2.03217e-16 0.0 3.88251e-19 -1.10418 -21.6168 -17.5668 -0.0264934 8.01475 -0.552486 6.69932 -16.8664 19.5737
-26.6307 82.5458 9.42221 -138.392 -77.8946 151.176 4.55112 0.341791 4.49267 1.88602 -14.1864 1.466 -1.21726 3.64335 4.21252 -12.919 42.4698 6.78712 -0.0 0.0 0.0 -0.0 0.0 0.0 1.51567e-13 -1.14551e-12 2.79526e-13 54.8111 66.3499 7.98242 -13.3303 -6.42872 24.212 -0.219766 -13.2369 -1.89448 -5.05023e-09 -3.66801e-09 2.0129e-09 -8.74048e-09 -6.33471e-09 3.43382e-09 -5.05023e-09 -3.66801e-09 2.01289e-09 7.73091 5.47488 0.417314 -5.05023e-09 -3.66801e-09 2.0129e-09 2.90554 0.965183 0.102902 -5.05023e-09 -3.66801e-09 2.01291e-09 10.2786 0.731801 0.0259123 -5.05024e-09 -3.66801e-09 2.01292e-09 2.22167 -0.733487 -0.20892 1.51536e-13 -1.14551e-12 2.79354e-13 -80.2375 34.6621 2.88262 11.9349 -5.40221 -21.485 0.0636553 7.06916 -0.998981 -2.66327e-10 -4.69309e-10 -3.5043e-09 -4.83497e-10 -8.07225e-10 -6.05681e-09 -2.66323e-10 -4.69301e-10 -3.5043e-09 -7.73091 5.47488 -0.417314 -2.66324e-10 -4.69299e-10 -3.5043e-09 -2.90554 0.965183 -0.102902 -2.6633e-10 -4.69299e-10 -3.5043e-09 -10.2786 0.731801 -0.0259123 -2.66324e-10 -4.69298e-10 -3.5043e-09 -2.22167 -0.733487 0.20892 -2.03217e-16 0.0 -3.88251e-19 6.77874 -14.7907 -3.16898 -0.149789 36.6611 0.97279 -2.42734 -5.11764 -13.6262 2.03217e-16 0.0 3.88251e-19 -2.0517 -21.0858 -17.3732 -0.0220237 8.32134 -0.509373 6.6262 -17.0682 19.3294
-27.3173 82.4191 9.72662 -140.316 -78.0526 152.811 3.57659 0.285153 4.37155 2.10355 -14.2212 1.45541 -1.01813 3.97116 4.23373 -13.0477 42.3184 6.76123 -0.0 0.0 0.0 -0.0 0.0 0.0 8.06487e-14 -1.3697e-12 8.17285e-14 53.5396 65.2268 9.46242 -13.6767 -6.69873 24.9019 -0.229871 -13.5289 -1.93787 -3.75528e-09 -2.74188e-09 1.7526e-09 -6.50259e-09 -4.73655e-09 2.99612e-09 -3.75528e-09 -2.74188e-09 1.75259e-09 7.73091 5.47488 0.417314 -3.75528e-09 -2.74188e-09 1.7526e-09 2.90554 0.965183 0.102902 -3.75528e-09 -2.74188e-09 1.7526e-09 10.2786 0.731801 0.0259123 -3.75529e-09 -2.74188e-09 1.75261e-09 2.22167 -0.733487 -0.20892 8.05958e-14 -1.3697e-12 8.15235e-14 -79.4615 37.2284 1.86857 12.1954 -5.58645 -21.9884 0.0536874 6.48485 -0.915664 2.48623e-10 -4.36787e-10 -2.6834e-09 4.11525e-10 -7.52285e-10 -4.6406e-09 2.48627e-10 -4.36777e-10 -2.6834e-09 -7.73091 5.47488 -0.417314 2.48625e-10 -4.36775e-10 -2.68341e-09 -2.90554 0.965183 -0.102902 2.48618e-10 -4.36775e-10 -2.6834e-09 -10.2786 0.731801 -0.0259123 2.48624e-10 -4.36776e-10 -2.68341e-09 -2.22167 -0.733487 0.20892 -2.03217e-16 0.0 -3.88251e-19 5.72043 -15.8104 -2.97484 -0.165923 37.8297 1.07186 -3.91314 -7.60331 -17.1295 2.03217e-16 0.0 3.88251e-19 -3.0965 -20.6178 -17.0971 -0.0169511 8.72849 -0.472501 6.50103 -17.1979 19.036
